<svg xmlns="http://www.w3.org/2000/svg" width="64pt" height="64pt" viewBox="0 0 64 64"><path d="M42.602 12a.602.602 0 00-.602.602v10.992l-2.492-1.453a.982.982 0 00-.508-.137.982.982 0 00-.508.137l-5.988 3.492c-.313.18-.504.512-.504.87v6.993c0 .36.191.691.504.871l5.988 3.492a.982.982 0 00.508.137.982.982 0 00.508-.137l5.988-3.492c.313-.18.504-.512.504-.87V14.46c0-.356-.191-.684-.496-.863l-2.606-1.516a.598.598 0 00-.296-.082zM23 22.004a1.02 1.02 0 00-.508.137l-5.988 3.492c-.313.18-.504.512-.504.87v6.993c0 .36.191.691.504.871l5.988 3.492c.313.184.703.184 1.016 0l5.988-3.492c.313-.18.504-.512.504-.87v-6.993c0-.36-.191-.692-.504-.871l-5.988-3.492a1.021 1.021 0 00-.508-.137zm32 0a.982.982 0 00-.508.137l-5.988 3.492c-.313.18-.504.512-.504.87v6.993c0 .36.191.691.504.871l5.809 3.512a.994.994 0 001.019.008l2.855-1.66a.447.447 0 000-.774L52 31.81v-3.59l3-1.746 3 1.746v2.5c0 .336.281.386.469.273.758-.445 3.035-1.765 3.035-1.765.305-.18.496-.508.496-.864v-1.86c0-.358-.191-.69-.504-.87l-5.988-3.492a.982.982 0 00-.508-.137zm-48 .004a.982.982 0 00-.508.137L.504 25.633a1.015 1.015 0 00-.504.875v8.926c0 .437.473.707.848.488l2.656-1.547c.305-.18.496-.508.496-.863v-5.285l3-1.75 3 1.75v5.285c0 .355.191.683.496.863l2.656 1.547a.564.564 0 00.848-.488v-8.926c0-.36-.191-.692-.504-.875l-5.988-3.488A.982.982 0 007 22.008zm32 4.465l3 1.75v3.554l-3 1.75-3-1.75v-3.554zm16 1.535l-1.715 1v1.996L55 32l1.715-.996v-1.996zm-24.188 7.988c-.207 0-.414.05-.593.152l-5.625 3.25A1.169 1.169 0 0024 40.422v6.492c0 .418.234.813.594 1.023l1.48.844c.711.352.973.352 1.293.352 1.059 0 1.664-.633 1.664-1.754v-6.414a.163.163 0 00-.164-.168h-.71a.167.167 0 00-.169.168v6.414c0 .484-.511.984-1.351.566l-1.54-.886a.18.18 0 01-.085-.149v-6.492c0-.059.027-.125.086-.156l5.625-3.242c.058-.032.129-.032.175 0l5.63 3.242c.058.031.085.09.085.156v6.492a.191.191 0 01-.086.156l-5.629 3.254a.176.176 0 01-.175 0l-1.438-.855c-.039-.02-.098-.031-.137-.012-.398.234-.476.266-.847.39-.098.032-.23.09.05.247l1.868 1.11c.187.097.39.155.593.155.215 0 .422-.058.586-.164l5.625-3.254c.372-.203.594-.605.594-1.023v-6.492c0-.418-.234-.809-.594-1.024l-5.625-3.25a1.17 1.17 0 00-.585-.152zm8.774 2.996a1.08 1.08 0 000 2.16c.594 0 1.078-.488 1.078-1.082 0-.613-.492-1.09-1.078-1.078zm-.012.172c.508 0 .918.398.918.906 0 .496-.41.907-.918.918a.911.911 0 01-.902-.918.9.9 0 01.902-.906zm-.394.293v1.215h.23v-.484h.215c.09 0 .11.039.129.105 0 .012.035.324.047.383h.25a1.564 1.564 0 01-.059-.324c-.027-.157-.039-.262-.203-.274.09-.031.234-.078.234-.3 0-.321-.28-.321-.425-.321zm.23.195h.195c.06 0 .176 0 .176.164 0 .067-.031.18-.187.176h-.184zm-7.09.993c-1.605 0-2.558.683-2.558 1.812 0 1.234.953 1.566 2.492 1.723 1.84.183 1.984.449 1.984.808 0 .633-.508.895-1.695.895-1.488 0-1.816-.371-1.926-1.11-.012-.078-.078-.136-.168-.136h-.73c-.09 0-.164.07-.164.168 0 .945.515 2.074 2.976 2.074 1.805-.004 2.828-.703 2.828-1.93 0-1.215-.82-1.539-2.55-1.773-1.754-.235-1.926-.352-1.926-.762 0-.34.144-.785 1.437-.785 1.157 0 1.59.254 1.766 1.031.02.078.074.125.152.125h.73c.048 0 .09-.02.118-.047.031-.039.05-.078.039-.125-.117-1.343-1.004-1.968-2.805-1.968zm0 0" fill="#fff"/></svg>