<?xml version="1.0" encoding="UTF-8" standalone="no"?>
<svg
   xmlns:dc="http://purl.org/dc/elements/1.1/"
   xmlns:cc="http://creativecommons.org/ns#"
   xmlns:rdf="http://www.w3.org/1999/02/22-rdf-syntax-ns#"
   xmlns:svg="http://www.w3.org/2000/svg"
   xmlns="http://www.w3.org/2000/svg"
   height="48"
   width="48"
   xml:space="preserve"
   viewBox="0 0 48 48"
   y="0px"
   x="0px"
   id="Capa_1"
   version="1.1"><metadata
   id="metadata49"><rdf:RDF><cc:Work
       rdf:about=""><dc:format>image/svg+xml</dc:format><dc:type
         rdf:resource="http://purl.org/dc/dcmitype/StillImage" /></cc:Work></rdf:RDF></metadata><defs
   id="defs47" />
<g
   id="g12">
	<g
   id="g10">
		<path
   id="path2"
   d="M 47.988,21.94 C 47.982,21.849 47.965,21.761 47.934,21.674 47.923,21.642 47.915,21.611 47.901,21.58 47.853,21.477 47.793,21.381 47.71,21.297 47.709,21.295 47.708,21.294 47.706,21.292 L 42,15.586 V 10 C 42,9.979 41.989,9.96 41.988,9.939 41.982,9.85 41.965,9.764 41.936,9.68 41.925,9.648 41.917,9.618 41.903,9.587 41.854,9.481 41.793,9.38 41.707,9.294 l -9,-9 C 32.621,0.208 32.521,0.147 32.415,0.098 32.384,0.084 32.352,0.075 32.32,0.064 32.237,0.036 32.152,0.019 32.064,0.013 32.042,0.011 32.022,0 32,0 H 7 C 6.447,0 6,0.448 6,1 V 15.586 L 0.294,21.292 C 0.292,21.294 0.292,21.295 0.29,21.297 0.207,21.38 0.147,21.477 0.099,21.58 0.085,21.61 0.077,21.642 0.066,21.674 0.036,21.76 0.018,21.848 0.012,21.94 0.011,21.961 0,21.979 0,22 v 19 c 0,0.552 0.447,1 1,1 h 5 v 5 c 0,0.552 0.447,1 1,1 h 34 c 0.553,0 1,-0.448 1,-1 v -5 h 5 c 0.553,0 1,-0.448 1,-1 V 22 c 0,-0.021 -0.011,-0.039 -0.012,-0.06 z M 44.586,21 H 42 v -2.586 z m -6,-12 H 33 V 3.414 Z M 8,2 h 23 v 8 c 0,0.552 0.447,1 1,1 h 8 v 5 5 H 8 V 16 Z M 6,18.414 V 21 H 3.414 Z M 40,46 H 8 v -4 h 32 z m 6,-6 H 2 V 23 h 5 34 5 z" />
		<polygon
   id="polygon4"
   points="22.198,25.964 20.175,25.964 20.175,38 22.198,38 22.198,32.662 25.802,32.662 25.802,38 27.825,38 27.825,25.964 25.802,25.964 25.802,30.843 22.198,30.843 " />
		<path
   id="path6"
   d="m 17.378,26.72 c -0.323,-0.277 -0.688,-0.473 -1.097,-0.586 -0.408,-0.113 -0.805,-0.17 -1.19,-0.17 H 11.76 V 38 h 2.006 v -4.828 h 1.428 c 0.419,0 0.827,-0.074 1.224,-0.221 0.397,-0.147 0.748,-0.374 1.054,-0.68 0.306,-0.306 0.552,-0.688 0.74,-1.148 0.187,-0.459 0.281,-0.994 0.281,-1.606 0,-0.68 -0.105,-1.247 -0.315,-1.7 -0.21,-0.453 -0.477,-0.819 -0.8,-1.097 z m -1.283,4.285 c -0.306,0.334 -0.697,0.501 -1.173,0.501 h -1.156 v -3.825 h 1.156 c 0.476,0 0.867,0.147 1.173,0.442 0.306,0.295 0.459,0.765 0.459,1.411 0,0.646 -0.153,1.136 -0.459,1.471 z" />
		<path
   id="path8"
   d="m 35.891,26.72 c -0.323,-0.277 -0.688,-0.473 -1.097,-0.586 -0.408,-0.113 -0.805,-0.17 -1.19,-0.17 H 30.272 V 38 h 2.006 v -4.828 h 1.428 c 0.419,0 0.827,-0.074 1.224,-0.221 0.397,-0.147 0.748,-0.374 1.054,-0.68 0.306,-0.306 0.553,-0.688 0.739,-1.148 0.187,-0.459 0.28,-0.994 0.28,-1.606 0,-0.68 -0.105,-1.247 -0.314,-1.7 -0.209,-0.453 -0.474,-0.819 -0.798,-1.097 z m -1.283,4.285 c -0.306,0.334 -0.697,0.501 -1.173,0.501 h -1.156 v -3.825 h 1.156 c 0.476,0 0.867,0.147 1.173,0.442 0.306,0.295 0.459,0.765 0.459,1.411 0,0.646 -0.153,1.136 -0.459,1.471 z" />
	</g>
</g>
<g
   id="g14">
</g>
<g
   id="g16">
</g>
<g
   id="g18">
</g>
<g
   id="g20">
</g>
<g
   id="g22">
</g>
<g
   id="g24">
</g>
<g
   id="g26">
</g>
<g
   id="g28">
</g>
<g
   id="g30">
</g>
<g
   id="g32">
</g>
<g
   id="g34">
</g>
<g
   id="g36">
</g>
<g
   id="g38">
</g>
<g
   id="g40">
</g>
<g
   id="g42">
</g>
</svg>